<?xml version="1.0" encoding="utf-8"?>
<!-- Generator: Adobe Illustrator 27.8.1, SVG Export Plug-In . SVG Version: 6.00 Build 0)  -->
<svg version="1.1" id="Vrstva_1" xmlns="http://www.w3.org/2000/svg" xmlns:xlink="http://www.w3.org/1999/xlink" x="0px" y="0px"
	 viewBox="0 0 595.28 602.95" style="enable-background:new 0 0 595.28 602.95;" xml:space="preserve">
<path d="M194.27,316.72c0-10.72,0-20.24,0-30.44c2.47,0,5,0,7.53,0c55.92,0.07,111.85,0.09,167.77,0.23
	c11.73,0.03,23.18-1.34,33.32-7.55c21.09-12.92,25.26-41.98,9.06-61.1c-10.24-12.08-23.65-18.28-39.1-18.77
	c-26.57-0.84-53.17-0.79-79.76-0.82c-4.49,0-5.99-0.97-6-5.69c-0.02-8.19-7.16-15.67-15.88-17.68c-1.3-0.3-2.62-0.47-4.01-0.72
	c0-3.06,0-5.9,0-9.18c1.85-0.11,3.47-0.29,5.1-0.28c32.52,0.19,65.04,0.09,97.55,0.72c19.46,0.38,38.38,3.9,55.39,14.29
	c28.01,17.12,42.64,53.6,34.15,85.14c-6.72,24.96-32.3,47.32-59.55,49.75c-20.98,1.87-42.16,1.69-63.26,1.85
	c-40.12,0.3-80.23,0.19-120.35,0.25C209.08,316.73,201.95,316.72,194.27,316.72z"/>
<path d="M195.03,335.46c13.91,0,26.31,0,38.75,0c0,10.68-0.08,20.95,0.02,31.22c0.13,12.67-2.87,24.6-7.54,36.3
	c-13.91,34.84-48.88,48.54-78.22,41.96c-23.14-5.19-40.96-18.5-48.1-42.46c-3.99-13.41-1.98-26.13,7.39-37.2
	c9.73-11.48,27.68-13.07,38.24-3.27c9.88,9.17,7.97,23.28-4.01,29.58c-4.83,2.54-5.37,4.32-2.79,9.18
	c5.45,10.27,16.81,14.11,29.42,11.32c14.82-3.28,26.71-21.66,26.82-35.86C195.11,362.73,195.03,349.22,195.03,335.46z"/>
<path d="M358.29,334.92c16.65,0,31.83-0.06,47,0.1c1.45,0.02,3.37,1.12,4.25,2.32c19.75,27.13,39.27,54.42,59.08,81.49
	c7.73,10.57,15.89,14.51,33.92,17.78c0,2.99,0,6.05,0,9.46c-5.09,0.27-9.93,0.85-14.74,0.73c-11.68-0.3-23.36-0.9-35.03-1.43
	c-9.92-0.45-17.81-5.05-23.66-12.76c-14.79-19.46-29.41-39.05-43.93-58.72c-8.02-10.87-15.72-21.97-23.52-33
	C360.64,339.48,359.92,337.85,358.29,334.92z"/>
<path d="M265.52,445.17c-0.14-1.05-0.27-1.79-0.34-2.54c-0.66-6.53-0.66-6.53,5.42-8.06c9.98-2.51,17.42-12.46,17.49-23.88
	c0.13-23.39,0.08-46.79,0.11-70.18c0-1.49,0-2.98,0-4.95c12.53,0,24.61,0,37.22,0c0.11,1.83,0.33,3.73,0.33,5.62
	c0.05,21.57,0.06,43.14,0.11,64.71c0.01,3.19-0.02,6.39,0.31,9.55c1.18,11.42,6.56,17.57,17.6,20.38c6.65,1.69,6.65,1.69,5.23,9.33
	C321.38,445.17,293.67,445.17,265.52,445.17z"/>
<path d="M234.02,268.17c-13.26,0-25.37,0-38.7,0c0-8.42,0.01-16.72,0-25.01c-0.02-15.19,0-30.39-0.09-45.58
	c-0.07-11.87-5.29-18.36-16.82-21.46c-4.83-1.3-1.96-5.3-2.42-8.05c-0.49-2.96,1.89-2.86,3.92-2.86
	c15.95,0.01,31.91,0.16,47.86-0.04c8.33-0.1,16.66-0.83,25.4-1.3c0.34,2.48,0.98,5.27,0.98,8.06c0,0.95-1.43,2.48-2.48,2.77
	c-13.02,3.63-18.23,10.21-18.18,23.86c0.07,19.6,0.34,39.2,0.52,58.8C234.05,260.84,234.02,264.31,234.02,268.17z"/>
<path d="M287.65,215.18c12.59,0,24.85,0,37.86,0c0,17.41,0,35.05,0,52.9c-12.75,0-25.1,0-37.86,0
	C287.65,250.5,287.65,233.27,287.65,215.18z"/>
<polygon points="92.1,23.19 29.48,23.19 29.48,23.18 14.05,23.18 14.05,101.2 29.48,101.2 29.48,38.61 92.1,38.61 "/>
<polygon points="14.08,507.99 14.08,570.61 14.07,570.61 14.07,586.03 92.08,586.03 92.08,570.61 29.5,570.61 29.5,507.99 "/>
<polygon points="502.94,586.02 565.56,586.02 565.56,586.03 580.98,586.03 580.98,508.02 565.56,508.02 565.56,570.6 502.94,570.6 
	"/>
<polygon points="580.96,101.22 580.96,38.6 580.97,38.6 580.97,23.18 502.95,23.18 502.95,38.6 565.54,38.6 565.54,101.22 "/>
</svg>
